<svg xmlns="http://www.w3.org/2000/svg" xmlns:xlink="http://www.w3.org/1999/xlink" width="500" zoomAndPan="magnify" viewBox="0 0 375 374.999991" height="500" preserveAspectRatio="xMidYMid meet" version="1.0"><path fill="#006837" d="M 375 187.5 C 375 291.039062 291.039062 375 187.5 375 C 83.960938 375 0 291.039062 0 187.5 C 0 83.960938 83.960938 0 187.5 0 C 291.039062 0 375 83.960938 375 187.5 Z M 375 187.5 " fill-opacity="1" fill-rule="nonzero"/><path fill="#ffffff" d="M 140.625 84.375 L 262.5 84.375 L 262.5 112.5 L 140.625 112.5 Z M 112.5 131.25 L 262.5 131.25 L 262.5 159.375 L 112.5 159.375 Z M 112.5 131.25 " fill-opacity="1" fill-rule="nonzero"/><path fill="#ffffff" d="M 154.132812 215.625 L 154.6875 215.625 C 188.632812 215.625 225 189.253906 225 150 C 225 110.746094 188.632812 84.375 154.6875 84.375 L 112.5 84.375 L 112.5 112.5 L 154.6875 112.5 C 172.378906 112.5 196.875 125.539062 196.875 150 C 196.875 174.460938 172.378906 187.5 154.6875 187.5 L 112.5 187.5 L 112.5 217.527344 L 211.492188 300 L 255.402344 300 Z M 154.132812 215.625 " fill-opacity="1" fill-rule="nonzero"/></svg>