<svg xmlns="http://www.w3.org/2000/svg" xmlns:xlink="http://www.w3.org/1999/xlink" width="500" zoomAndPan="magnify" viewBox="0 0 375 374.999991" height="500" preserveAspectRatio="xMidYMid meet" version="1.0"><path fill="#006837" d="M 375 187.5 C 375 190.570312 374.925781 193.636719 374.773438 196.699219 C 374.625 199.765625 374.398438 202.824219 374.097656 205.878906 C 373.796875 208.933594 373.421875 211.976562 372.96875 215.011719 C 372.519531 218.046875 371.996094 221.070312 371.398438 224.078125 C 370.796875 227.089844 370.125 230.082031 369.378906 233.058594 C 368.636719 236.035156 367.816406 238.992188 366.925781 241.929688 C 366.035156 244.863281 365.074219 247.777344 364.039062 250.667969 C 363.003906 253.554688 361.902344 256.417969 360.726562 259.253906 C 359.554688 262.089844 358.308594 264.894531 356.996094 267.667969 C 355.6875 270.441406 354.308594 273.179688 352.859375 275.886719 C 351.414062 278.59375 349.902344 281.261719 348.324219 283.894531 C 346.746094 286.527344 345.105469 289.117188 343.402344 291.667969 C 341.695312 294.222656 339.929688 296.730469 338.101562 299.195312 C 336.273438 301.660156 334.386719 304.078125 332.4375 306.449219 C 330.492188 308.820312 328.488281 311.144531 326.429688 313.417969 C 324.367188 315.691406 322.253906 317.914062 320.082031 320.082031 C 317.914062 322.253906 315.691406 324.367188 313.417969 326.429688 C 311.144531 328.488281 308.820312 330.492188 306.449219 332.4375 C 304.078125 334.386719 301.660156 336.273438 299.195312 338.101562 C 296.730469 339.929688 294.222656 341.695312 291.667969 343.402344 C 289.117188 345.105469 286.527344 346.746094 283.894531 348.324219 C 281.261719 349.902344 278.59375 351.414062 275.886719 352.859375 C 273.179688 354.308594 270.441406 355.6875 267.667969 356.996094 C 264.894531 358.308594 262.089844 359.554688 259.253906 360.726562 C 256.417969 361.902344 253.554688 363.003906 250.667969 364.039062 C 247.777344 365.074219 244.863281 366.035156 241.929688 366.925781 C 238.992188 367.816406 236.035156 368.636719 233.058594 369.378906 C 230.082031 370.125 227.089844 370.796875 224.078125 371.398438 C 221.070312 371.996094 218.046875 372.519531 215.011719 372.96875 C 211.976562 373.421875 208.933594 373.796875 205.878906 374.097656 C 202.824219 374.398438 199.765625 374.625 196.699219 374.773438 C 193.636719 374.925781 190.570312 375 187.5 375 C 184.429688 375 181.363281 374.925781 178.300781 374.773438 C 175.234375 374.625 172.175781 374.398438 169.121094 374.097656 C 166.066406 373.796875 163.023438 373.421875 159.988281 372.96875 C 156.953125 372.519531 153.929688 371.996094 150.921875 371.398438 C 147.910156 370.796875 144.917969 370.125 141.941406 369.378906 C 138.964844 368.636719 136.007812 367.816406 133.070312 366.925781 C 130.136719 366.035156 127.222656 365.074219 124.332031 364.039062 C 121.445312 363.003906 118.582031 361.902344 115.746094 360.726562 C 112.910156 359.554688 110.105469 358.308594 107.332031 356.996094 C 104.558594 355.6875 101.820312 354.308594 99.113281 352.859375 C 96.40625 351.414062 93.738281 349.902344 91.105469 348.324219 C 88.472656 346.746094 85.882812 345.105469 83.332031 343.402344 C 80.777344 341.695312 78.269531 339.929688 75.804688 338.101562 C 73.339844 336.273438 70.921875 334.386719 68.550781 332.4375 C 66.179688 330.492188 63.855469 328.488281 61.582031 326.429688 C 59.308594 324.367188 57.085938 322.253906 54.917969 320.082031 C 52.746094 317.914062 50.632812 315.691406 48.570312 313.417969 C 46.511719 311.144531 44.507812 308.820312 42.558594 306.449219 C 40.613281 304.078125 38.726562 301.660156 36.898438 299.195312 C 35.070312 296.730469 33.304688 294.222656 31.597656 291.667969 C 29.894531 289.117188 28.253906 286.527344 26.675781 283.894531 C 25.097656 281.261719 23.585938 278.59375 22.140625 275.886719 C 20.691406 273.179688 19.3125 270.441406 18.003906 267.667969 C 16.691406 264.894531 15.445312 262.089844 14.273438 259.253906 C 13.097656 256.417969 11.996094 253.554688 10.960938 250.667969 C 9.925781 247.777344 8.964844 244.863281 8.074219 241.929688 C 7.183594 238.992188 6.363281 236.035156 5.621094 233.058594 C 4.875 230.082031 4.203125 227.089844 3.601562 224.078125 C 3.003906 221.070312 2.480469 218.046875 2.03125 215.011719 C 1.578125 211.976562 1.203125 208.933594 0.902344 205.878906 C 0.601562 202.824219 0.375 199.765625 0.226562 196.699219 C 0.0742188 193.636719 0 190.570312 0 187.5 C 0 184.429688 0.0742188 181.363281 0.226562 178.300781 C 0.375 175.234375 0.601562 172.175781 0.902344 169.121094 C 1.203125 166.066406 1.578125 163.023438 2.03125 159.988281 C 2.480469 156.953125 3.003906 153.929688 3.601562 150.921875 C 4.203125 147.910156 4.875 144.917969 5.621094 141.941406 C 6.363281 138.964844 7.183594 136.007812 8.074219 133.070312 C 8.964844 130.136719 9.925781 127.222656 10.960938 124.332031 C 11.996094 121.445312 13.097656 118.582031 14.273438 115.746094 C 15.445312 112.910156 16.691406 110.105469 18.003906 107.332031 C 19.3125 104.558594 20.691406 101.820312 22.140625 99.113281 C 23.585938 96.40625 25.097656 93.738281 26.675781 91.105469 C 28.253906 88.472656 29.894531 85.882812 31.597656 83.332031 C 33.304688 80.777344 35.070312 78.269531 36.898438 75.804688 C 38.726562 73.339844 40.613281 70.921875 42.558594 68.550781 C 44.507812 66.179688 46.511719 63.855469 48.570312 61.582031 C 50.632812 59.308594 52.746094 57.085938 54.917969 54.917969 C 57.085938 52.746094 59.308594 50.632812 61.582031 48.570312 C 63.855469 46.511719 66.179688 44.507812 68.550781 42.558594 C 70.921875 40.613281 73.339844 38.726562 75.804688 36.898438 C 78.269531 35.070312 80.777344 33.304688 83.332031 31.597656 C 85.882812 29.894531 88.472656 28.253906 91.105469 26.675781 C 93.738281 25.097656 96.40625 23.585938 99.113281 22.140625 C 101.820312 20.691406 104.558594 19.3125 107.332031 18.003906 C 110.105469 16.691406 112.910156 15.445312 115.746094 14.273438 C 118.582031 13.097656 121.445312 11.996094 124.332031 10.960938 C 127.222656 9.925781 130.136719 8.964844 133.070312 8.074219 C 136.007812 7.183594 138.964844 6.363281 141.941406 5.617188 C 144.917969 4.875 147.910156 4.203125 150.921875 3.601562 C 153.929688 3.003906 156.953125 2.480469 159.988281 2.03125 C 163.023438 1.578125 166.066406 1.203125 169.121094 0.902344 C 172.175781 0.601562 175.234375 0.375 178.300781 0.226562 C 181.363281 0.0742188 184.429688 0 187.5 0 C 190.570312 0 193.636719 0.0742188 196.699219 0.226562 C 199.765625 0.375 202.824219 0.601562 205.878906 0.902344 C 208.933594 1.203125 211.976562 1.578125 215.011719 2.03125 C 218.046875 2.480469 221.070312 3.003906 224.078125 3.601562 C 227.089844 4.203125 230.082031 4.875 233.058594 5.617188 C 236.035156 6.363281 238.992188 7.183594 241.929688 8.074219 C 244.863281 8.964844 247.777344 9.925781 250.667969 10.960938 C 253.554688 11.996094 256.417969 13.097656 259.253906 14.273438 C 262.089844 15.445312 264.894531 16.691406 267.667969 18.003906 C 270.441406 19.3125 273.179688 20.691406 275.886719 22.140625 C 278.59375 23.585938 281.261719 25.097656 283.894531 26.675781 C 286.527344 28.253906 289.117188 29.894531 291.667969 31.597656 C 294.222656 33.304688 296.730469 35.070312 299.195312 36.898438 C 301.660156 38.726562 304.078125 40.613281 306.449219 42.558594 C 308.820312 44.507812 311.144531 46.511719 313.417969 48.570312 C 315.691406 50.632812 317.914062 52.746094 320.082031 54.917969 C 322.253906 57.085938 324.367188 59.308594 326.429688 61.582031 C 328.488281 63.855469 330.492188 66.179688 332.4375 68.550781 C 334.386719 70.921875 336.273438 73.339844 338.101562 75.804688 C 339.929688 78.269531 341.695312 80.777344 343.402344 83.332031 C 345.105469 85.882812 346.746094 88.472656 348.324219 91.105469 C 349.902344 93.738281 351.414062 96.40625 352.859375 99.113281 C 354.308594 101.820312 355.6875 104.558594 356.996094 107.332031 C 358.308594 110.105469 359.554688 112.910156 360.726562 115.746094 C 361.902344 118.582031 363.003906 121.445312 364.039062 124.332031 C 365.074219 127.222656 366.035156 130.136719 366.925781 133.070312 C 367.816406 136.007812 368.636719 138.964844 369.378906 141.941406 C 370.125 144.917969 370.796875 147.910156 371.398438 150.921875 C 371.996094 153.929688 372.519531 156.953125 372.96875 159.988281 C 373.421875 163.023438 373.796875 166.066406 374.097656 169.121094 C 374.398438 172.175781 374.625 175.234375 374.773438 178.300781 C 374.925781 181.363281 375 184.429688 375 187.5 Z M 375 187.5 " fill-opacity="1" fill-rule="nonzero"/><path fill="#ffffff" d="M 114.90625 82.46875 L 290.832031 82.46875 C 292.675781 82.46875 294.167969 83.960938 294.167969 85.800781 L 294.167969 263.039062 C 294.167969 271.152344 290.851562 278.527344 285.507812 283.871094 C 280.160156 289.214844 272.789062 292.53125 264.671875 292.53125 L 114.90625 292.53125 C 113.0625 292.53125 111.570312 291.039062 111.570312 289.199219 L 111.570312 85.800781 C 111.570312 83.960938 113.0625 82.46875 114.90625 82.46875 Z M 287.5 89.136719 L 118.238281 89.136719 L 118.238281 285.863281 L 264.671875 285.863281 C 270.949219 285.863281 276.65625 283.292969 280.792969 279.15625 C 284.933594 275.019531 287.5 269.3125 287.5 263.039062 Z M 287.5 89.136719 " fill-opacity="1" fill-rule="nonzero"/><path fill="#ffffff" d="M 111.570312 135.121094 L 87.5 135.121094 L 87.5 263.039062 C 87.5 269.3125 90.070312 275.019531 94.207031 279.15625 C 98.34375 283.296875 104.050781 285.863281 110.328125 285.863281 L 111.570312 285.863281 Z M 84.167969 128.453125 L 114.90625 128.453125 C 116.746094 128.453125 118.238281 129.945312 118.238281 131.785156 L 118.238281 289.199219 C 118.238281 291.039062 116.746094 292.53125 114.90625 292.53125 L 110.328125 292.53125 C 102.210938 292.53125 94.835938 289.214844 89.496094 283.871094 C 84.148438 278.527344 80.832031 271.152344 80.832031 263.039062 L 80.832031 131.785156 C 80.832031 129.945312 82.324219 128.453125 84.167969 128.453125 Z M 84.167969 128.453125 " fill-opacity="1" fill-rule="nonzero"/><path fill="#ffffff" d="M 141.882812 105.765625 L 193.222656 105.765625 C 195.0625 105.765625 196.554688 107.257812 196.554688 109.101562 L 196.554688 164.363281 C 196.554688 166.207031 195.0625 167.699219 193.222656 167.699219 L 141.882812 167.699219 C 140.042969 167.699219 138.550781 166.207031 138.550781 164.363281 L 138.550781 109.101562 C 138.550781 107.257812 140.042969 105.765625 141.882812 105.765625 Z M 189.886719 112.433594 L 145.214844 112.433594 L 145.214844 161.03125 L 189.886719 161.03125 Z M 189.886719 112.433594 " fill-opacity="1" fill-rule="nonzero"/><path fill="#ffffff" d="M 208.265625 108.710938 C 206.425781 108.710938 204.933594 110.203125 204.933594 112.042969 C 204.933594 113.886719 206.425781 115.378906 208.265625 115.378906 L 263.855469 115.378906 C 265.699219 115.378906 267.191406 113.886719 267.191406 112.042969 C 267.191406 110.203125 265.699219 108.710938 263.855469 108.710938 Z M 208.265625 108.710938 " fill-opacity="1" fill-rule="nonzero"/><path fill="#ffffff" d="M 208.265625 125.167969 C 206.425781 125.167969 204.933594 126.660156 204.933594 128.503906 C 204.933594 130.34375 206.425781 131.835938 208.265625 131.835938 L 263.855469 131.835938 C 265.699219 131.835938 267.191406 130.34375 267.191406 128.503906 C 267.191406 126.660156 265.699219 125.167969 263.855469 125.167969 Z M 208.265625 125.167969 " fill-opacity="1" fill-rule="nonzero"/><path fill="#ffffff" d="M 208.265625 141.628906 C 206.425781 141.628906 204.933594 143.121094 204.933594 144.960938 C 204.933594 146.800781 206.425781 148.292969 208.265625 148.292969 L 263.855469 148.292969 C 265.699219 148.292969 267.191406 146.800781 267.191406 144.960938 C 267.191406 143.121094 265.699219 141.628906 263.855469 141.628906 Z M 208.265625 141.628906 " fill-opacity="1" fill-rule="nonzero"/><path fill="#ffffff" d="M 208.265625 158.085938 C 206.425781 158.085938 204.933594 159.578125 204.933594 161.417969 C 204.933594 163.261719 206.425781 164.753906 208.265625 164.753906 L 263.855469 164.753906 C 265.699219 164.753906 267.191406 163.261719 267.191406 161.417969 C 267.191406 159.578125 265.699219 158.085938 263.855469 158.085938 Z M 208.265625 158.085938 " fill-opacity="1" fill-rule="nonzero"/><path fill="#ffffff" d="M 263.855469 235.0625 L 212.515625 235.0625 C 210.675781 235.0625 209.183594 233.570312 209.183594 231.726562 L 209.183594 176.464844 C 209.183594 174.621094 210.675781 173.128906 212.515625 173.128906 L 263.855469 173.128906 C 265.699219 173.128906 267.191406 174.621094 267.191406 176.464844 L 267.191406 231.726562 C 267.191406 233.570312 265.699219 235.0625 263.855469 235.0625 Z M 215.851562 228.394531 L 260.523438 228.394531 L 260.523438 179.796875 L 215.851562 179.796875 Z M 215.851562 228.394531 " fill-opacity="1" fill-rule="nonzero"/><path fill="#ffffff" d="M 197.472656 232.117188 C 199.3125 232.117188 200.804688 230.625 200.804688 228.785156 C 200.804688 226.941406 199.3125 225.449219 197.472656 225.449219 L 141.882812 225.449219 C 140.039062 225.449219 138.546875 226.941406 138.546875 228.785156 C 138.546875 230.625 140.039062 232.117188 141.882812 232.117188 Z M 197.472656 232.117188 " fill-opacity="1" fill-rule="nonzero"/><path fill="#ffffff" d="M 197.472656 215.660156 C 199.3125 215.660156 200.804688 214.167969 200.804688 212.324219 C 200.804688 210.484375 199.3125 208.992188 197.472656 208.992188 L 141.882812 208.992188 C 140.039062 208.992188 138.546875 210.484375 138.546875 212.324219 C 138.546875 214.167969 140.039062 215.660156 141.882812 215.660156 Z M 197.472656 215.660156 " fill-opacity="1" fill-rule="nonzero"/><path fill="#ffffff" d="M 197.472656 199.199219 C 199.3125 199.199219 200.804688 197.707031 200.804688 195.867188 C 200.804688 194.023438 199.3125 192.53125 197.472656 192.53125 L 141.882812 192.53125 C 140.039062 192.53125 138.546875 194.023438 138.546875 195.867188 C 138.546875 197.707031 140.039062 199.199219 141.882812 199.199219 Z M 197.472656 199.199219 " fill-opacity="1" fill-rule="nonzero"/><path fill="#ffffff" d="M 197.472656 182.742188 C 199.3125 182.742188 200.804688 181.25 200.804688 179.40625 C 200.804688 177.566406 199.3125 176.074219 197.472656 176.074219 L 141.882812 176.074219 C 140.039062 176.074219 138.546875 177.566406 138.546875 179.40625 C 138.546875 181.25 140.039062 182.742188 141.882812 182.742188 Z M 197.472656 182.742188 " fill-opacity="1" fill-rule="nonzero"/><path fill="#ffffff" d="M 231.15625 249.609375 C 232.996094 249.609375 234.488281 248.117188 234.488281 246.277344 C 234.488281 244.4375 232.996094 242.945312 231.15625 242.945312 L 141.882812 242.945312 C 140.042969 242.945312 138.546875 244.4375 138.546875 246.277344 C 138.546875 248.117188 140.042969 249.609375 141.882812 249.609375 Z M 231.15625 249.609375 " fill-opacity="1" fill-rule="nonzero"/><path fill="#ffffff" d="M 231.15625 269.234375 C 232.996094 269.234375 234.488281 267.738281 234.488281 265.898438 C 234.488281 264.058594 232.996094 262.566406 231.15625 262.566406 L 141.882812 262.566406 C 140.042969 262.566406 138.546875 264.058594 138.546875 265.898438 C 138.546875 267.738281 140.042969 269.234375 141.882812 269.234375 Z M 231.15625 269.234375 " fill-opacity="1" fill-rule="nonzero"/></svg>